<svg width="52" height="49" viewBox="0 0 52 49" fill="none" xmlns="http://www.w3.org/2000/svg">
<g clip-path="url(#clip0_5201_521)">
<g clip-path="url(#clip1_5201_521)">
<g clip-path="url(#clip2_5201_521)">
<path d="M39.2259 36.7312L29.5019 46.4552C28.5469 47.4095 27.252 47.9456 25.9019 47.9456C24.5518 47.9456 23.2569 47.4095 22.3019 46.4552L12.5769 36.7312C13.0076 36.6026 13.3853 36.3385 13.6541 35.9783C13.9229 35.618 14.0683 35.1807 14.0689 34.7312V18.5612C14.0709 18.1757 13.9623 17.7978 13.7559 17.4722C15.7571 16.5431 17.9954 16.2514 20.1679 16.6365C22.3403 17.0216 24.342 18.0649 25.9019 19.6252C27.4622 18.0656 29.4636 17.0225 31.6357 16.6367C33.8078 16.251 36.046 16.5412 38.0479 17.4682C37.8433 17.796 37.7349 18.1747 37.7349 18.5612V34.7312C37.7341 35.1809 37.8789 35.6187 38.1477 35.9792C38.4165 36.3397 38.7947 36.6035 39.2259 36.7312Z" fill="#ED2272"/>
<path d="M14.065 18.5602V34.7302C14.0644 35.1797 13.919 35.617 13.6502 35.9773C13.3814 36.3376 13.0037 36.6016 12.573 36.7302L10.684 34.8402C9.46209 33.6152 8.5532 32.1139 8.0342 30.4633C7.51521 28.8128 7.40136 27.0615 7.70231 25.3576C8.00326 23.6538 8.71014 22.0474 9.76316 20.6745C10.8162 19.3016 12.1844 18.2025 13.752 17.4702C13.9585 17.7961 14.0672 18.1744 14.065 18.5602Z" fill="#2F215F"/>
<path d="M41.1161 34.8408L39.2261 36.7308C38.7932 36.6048 38.413 36.3416 38.1425 35.981C37.872 35.6203 37.7259 35.1816 37.7261 34.7308V18.5608C37.726 18.1743 37.8345 17.7956 38.0391 17.4678C39.6069 18.2004 40.9752 19.2997 42.0285 20.6728C43.0817 22.0459 43.7889 23.6523 44.0902 25.3564C44.3915 27.0605 44.2781 28.8121 43.7596 30.4631C43.241 32.1141 42.3326 33.616 41.1111 34.8418L41.1161 34.8408Z" fill="#2F215F"/>
<path d="M50.8 24.867V28.419C50.8 30.6468 49.915 32.7834 48.3397 34.3587C46.7644 35.934 44.6278 36.819 42.4 36.819H39.816C39.6156 36.819 39.4163 36.7904 39.224 36.734L41.114 34.844C42.3355 33.6182 43.2439 32.1163 43.7625 30.4653C44.281 28.8143 44.3944 27.0627 44.0931 25.3586C43.7918 23.6545 43.0847 22.048 42.0314 20.675C40.9782 19.3019 39.6098 18.2026 38.042 17.47C38.2279 17.1664 38.4886 16.9156 38.7993 16.7417C39.1099 16.5678 39.46 16.4767 39.816 16.477H41.707C40.686 13.0786 38.597 10.0998 35.7497 7.9822C32.9024 5.86462 29.4484 4.72105 25.9 4.72105C22.3516 4.72105 18.8976 5.86462 16.0503 7.9822C13.203 10.0998 11.114 13.0786 10.093 16.477H11.978C12.3349 16.4763 12.6858 16.5681 12.9967 16.7433C13.3076 16.9186 13.5678 17.1713 13.752 17.477C12.1827 18.2075 10.8127 19.3058 9.75829 20.6787C8.70387 22.0515 7.9961 23.6584 7.69501 25.3631C7.39392 27.0677 7.5084 28.8199 8.02873 30.4709C8.54907 32.1219 9.4599 33.623 10.684 34.847L12.573 36.737C12.3797 36.7935 12.1794 36.8221 11.978 36.822H9.394C8.29118 36.822 7.19916 36.6046 6.18036 36.1824C5.16156 35.7602 4.23596 35.1414 3.45642 34.3613C2.67689 33.5812 2.05871 32.6552 1.63722 31.6361C1.21574 30.617 0.999214 29.5248 1 28.422V24.87C1.00035 23.2276 1.48211 21.6215 2.3857 20.2501C3.28929 18.8787 4.57508 17.8023 6.084 17.154C7.02253 12.5922 9.50638 8.49399 13.1162 5.55124C16.726 2.60849 21.2407 1.00146 25.898 1.00146C30.5553 1.00146 35.07 2.60849 38.6798 5.55124C42.2896 8.49399 44.7735 12.5922 45.712 17.154C47.2212 17.8015 48.5075 18.8772 49.4118 20.248C50.3161 21.6189 50.7987 23.2247 50.8 24.867Z" fill="#00AEEF"/>
</g>
</g>
</g>
<defs>
<clipPath id="clip0_5201_521">
<rect width="52" height="49" fill="white"/>
</clipPath>
<clipPath id="clip1_5201_521">
<rect width="173" height="47" fill="white" transform="translate(1 1)"/>
</clipPath>
<clipPath id="clip2_5201_521">
<rect width="172.847" height="46.948" fill="white" transform="translate(1 1)"/>
</clipPath>
</defs>
</svg>
