<svg width="24" height="24" viewBox="0 0 24 24" fill="none" xmlns="http://www.w3.org/2000/svg">
<path d="M10.7156 15.6316C10.7156 14.4237 10.8266 13.5549 11.0486 13.0252C11.2706 12.4955 11.7407 11.9178 12.4587 11.2921C13.0856 10.7553 13.5636 10.2891 13.8927 9.89363C14.2217 9.49816 14.3859 9.04721 14.3853 8.54079C14.3853 7.92939 14.1752 7.42237 13.755 7.01974C13.3349 6.61711 12.7498 6.41579 12 6.41579C11.2202 6.41579 10.6275 6.64693 10.222 7.10921C9.81651 7.57149 9.53028 8.04123 9.3633 8.51842L7 7.53421C7.3211 6.57982 7.90979 5.75219 8.76605 5.05132C9.62232 4.35044 10.7003 4 12 4C13.6055 4 14.8404 4.43633 15.7046 5.309C16.5688 6.18167 17.0006 7.2291 17 8.45132C17 9.19693 16.8358 9.83458 16.5073 10.3643C16.1789 10.8939 15.6627 11.494 14.9587 12.1645C14.2095 12.8653 13.7547 13.3986 13.5945 13.7643C13.4342 14.1299 13.3538 14.7523 13.3532 15.6316H10.7156ZM12 21C11.4954 21 11.0636 20.8246 10.7046 20.4739C10.3456 20.1232 10.1657 19.702 10.1651 19.2105C10.1651 18.7184 10.345 18.297 10.7046 17.9463C11.0642 17.5955 11.496 17.4205 12 17.4211C12.5046 17.4211 12.9367 17.5964 13.2963 17.9472C13.656 18.2979 13.8355 18.719 13.8349 19.2105C13.8349 19.7026 13.655 20.1241 13.2954 20.4748C12.9358 20.8255 12.504 21.0006 12 21Z" fill="currentColor"/>
</svg>
